<?xml version="1.0" encoding="UTF-8"?>
<svg width="144.55mm" height="169.54mm" version="1.1" viewBox="0 0 144.55 169.54" xml:space="preserve" xmlns="http://www.w3.org/2000/svg"><g transform="translate(-22.119 -15.739)" fill="none" stroke-linecap="round" stroke-linejoin="round"><g transform="translate(-19.925 89.1)" stroke="#000"><g stroke-width="1.2"><path d="m79.552-61.607c0.44525 0.70536 1.2052 0.51601 2.2444 0.37302 3.4458-0.47415 9.1646-0.19762 10.416 0.37607-0.31127 5.5769 0.0553 18.097 0.21431 26.897 0.21075 9.3344-11.257 10.067-12.239 1.493-0.044-0.3646-0.51095 0.1678-0.89757 0.3567"/><path d="m96.017-42.467c-0.33136 7.3096-0.39747 14.846 3.6885 15.053 3.8607 0.20594 4.6518-7.7743 4.2534-13.325-0.38647-4.4491-0.9738-10.63-3.3562-10.6-3.3993 0.27871-4.1811 4.1015-4.5857 8.8723z"/><path d="m98.094-32.614c0.19278 4e-3 0.36884-0.02502 0.37865-0.06213 1.2361-4.6757 0.87819-6.0074 2.7675-12.856 0.0412-0.14948 0.22453-0.27809 0.37368-0.27431"/></g><path d="m106.16-26.376c0.46382 0.10503 1.3407 0.36886 1.3915-0.06522 0.8207-16.208 0.82246-22.777 1.1051-34.539 4.344-3.0651 7.9488 2.8355 7.9334 6.6551-0.11751 5.3511-3.2419 8.7428-8.1906 9.3818 3.9081 5.4787 5.83 12.008 8.5009 18.002 0.17329 0.36113 0.76038-0.35361 1.1958-0.67398" stroke-width="1.1"/><g stroke-width="1.2"><path d="m124.59-51.634c6.5426 4.7244 4.486 10.389 4.8873 16.401 0.36017 5.6389-2.227 8.263-3.8535 8.1769-4.1465-0.51142-5.0922-7.7605-4.9343-13.111 0.0836-1.7544-0.22711-9.618 3.9005-11.466z"/><path d="m126.95-44.241c-0.24034-0.06983-0.48319-0.30353-0.53216-0.01432-0.5121 3.901-1.277 5.4261-2.0275 11.703-0.0226 0.18928-0.30372 0.03043-0.49079-0.0064"/><path d="m149.26-60.347c-1.1121-0.27944-1.9204-0.36965-2.0026 0.09103-0.92994 9.0549-1.9472 17.215-2.832 26.366-0.28557 3.4682-2.878 8.4928-6.3003 8.2111-2.7861-0.23317-5.3117-3.0087-5.1519-6.0264 0.54979-9.9984 2.3468-21.766 1.804-28.696 0.16186-0.62404-1.028-0.28122-1.542-0.17007"/></g></g><g stroke="#000"><path d="m60.627 84.214c0.52754 0.70996 1.5055 0.96955 3.0076 0.70491 1.4915-0.31554 5.6342-4.0518 9.4049-4.6932 2.5091-0.50424 2.195 4.877 0.98068 6.338-1.9962 2.6465-4.0064 2.3486-5.4456 2.034-2.5582-0.8162-2.0407-1.6332-1.3068-2.1356 2.1301-1.53 3.0776 0.42079 4.4027 2.0753 0.40643 0.4233 2.8634 0.34589 4.5584-2.1147 1.1572-1.7357 1.644-3.2864 2.0207-4.9343 1.0156 0.35044 2.097 0.45411 3.2896 0.14098-2.2269 5.9785-0.51708 6.3428 0.29337 6.8967 4.4833 2.4235 7.9655-5.1881 6.4732-6.7234-0.73554-0.77628-5.0988 3.9541-2.1095 7.1929 2.8767 2.8752 8.6613-3.6414 8.9946-6.7082 2.7 1.5219 2.679 6.5889 1.6918 7.7775-2.5932 3.1461-6.1162-1.7206-5.1458-2.6316 1.4899-1.4349 4.1207 3.3323 6.9457 2.8713 6.7783-1.3335 4.7211-7.7926 3.3493-7.8996-1.1296-0.08671-3.9041 4.2007-1.252 7.1907 0.9123 0.9705 3.6686 1.4444 6.042-6.9309 0.56852 1.9894-0.16976 7.8002-0.61995 7.5632-0.30412-0.17484 2.1623-7.0881 3.6276-6.4368 1.1304 0.59988-0.5504 4.4594 1.9267 6.9551 2.6442 2.1646 7.9353-15.684 6.8141-15.743-0.79156-0.04111-4.1313 15.527-0.93987 16.26 2.0021 0.36702 7.4195-5.4738 9.4457-9.5397 0.99542 3.4513 1.4726 8.7237-0.91639 10.597-1.7789 1.2112-3.8795-4.5827-3.0076-5.4513 0.64062-0.64753 6.379 5.5274 9.0698 5.1693 2.0999-0.34062 4.892-2.5989 4.6289-4.7229-0.55644-3.9316-3.966-2.2231-3.0546-0.61092"/><path d="m69.321 79.797c-1.1674 7.076-5.5561 17.299-6.2972 19.032"/><path d="m113.19 79.75c3.0772 0.34631 5.6661 0.51809 9.5162 0.46994"/><path d="m70.802 95.325c20.235-0.83139 39.928-0.94954 59.215-0.26584"/></g><g transform="translate(19.438 -3.2412)" stroke="#d30000" stroke-width="2"><path d="m29.797 109.15c-3.8707 1.0672-6.6925 2.3674-8.972 3.7882 0.74805 7.4948 4.5516 14.778 5.3167 23.061"/><path d="m24.28 124.5c1.699-0.44986 3.4533-1.0438 4.9844-1.6615"/><path d="m33.518 116.19c1.6328 4.5247 0.349 13.715 6.3801 12.428 4.8886-1.3249 3.49-7.2132 1.2627-14.488"/><path d="m47.807 130.42c0.88612-3.5901 1.307-8.176 2.1932-15.817 3.0563 7.5499 3.2074 11.341 5.5161 15.551 1.1796-5.0214 1.3077-9.9066 2.7248-16.15"/></g><g transform="translate(34.747 .70075)" stroke="#000"><path d="m79.699 113.89c0.22543 4.5694 0.69673 8.746 2.0989 11.829 2.0944-1.6387 3.1315-6.6654 3.4302-6.6768 1.5873-0.0433 2.5754 7.0637 3.7538 6.4301 2.2236-1.3278 1.9341-8.0807 3.1429-12.453"/><path d="m95.856 115.56c-0.02862 4.0822-0.0017 6.5564 0.4666 9.4605"/><path d="m99.209 116.34c0.34789-0.15029 7.5942-0.48282 7.9115-0.2739"/><path d="m102.68 116.25c0.19743 3.1296 0.0682 6.4437 0.33229 9.0366"/><path d="m110.03 115.37c-0.0132 3.4394-0.0702 6.7737 0.1277 10.72"/><path d="m110.33 120.37c0.87903 0.37786 2.9431 0.0875 4.1554-0.0138"/><path d="m114.85 115.52c-0.23539 3.5747-0.32503 6.9874-0.23545 10.474"/></g><g transform="matrix(.7441 0 0 .7441 23.157 7.7303)" stroke="#000"><path d="m11.067 80.594c-0.9666 1.1471-0.66918 3.0486 2.8666 3.8535 0.44665 0.07924 6.4993 0.1339 3.924-5.9682-0.55955-1.3226-3.343-4.121-5.8507-3.4775-5.941 1.5991-6.8113 6.1937-5.8507 10.903 0.62987 2.8222 3.9599 5.0727 9.9157 6.7671 2.1311 0.56043 8.4326 0.28848 12.312-1.7388 4.5667-2.4217 4.2967-6.9274 6.6496-10.527 1.663-2.6443 6.3689-2.5353 8.9053-1.4568 2.0332 0.71947 3.6874 4.2017 3.2729 7.1259-0.21631 1.4106-2.0618 3.1706-3.5578 3.1794-2.1277-0.03146-4.1306-0.24274-5.1665-1.8465-0.70466-1.5043-0.69052-3.2715 0.98687-4.0415 1.0323-0.40924 1.9285 0.52805 1.9737 1.3628"/><path d="m27.374 98.146c-0.38456-5.4472-1.6724-11.087-1.9032-17.905"/><path d="m30.804 97.911c-0.52071-6.072-0.45877-12.71-1.2688-19.737"/></g><g transform="matrix(.80801 0 0 .80801 12.653 -.819)" stroke="#000"><path d="m150.76 85.916c1.7074-0.43861 2.9886 0.73528 1.6837 3.1977-0.94024 1.7437-4.3601 1.5556-5.6803 0.83571-2.6476-1.4941-2.1284-5.4048-1.5831-6.3584 1.7753-2.859 4.0033-3.4772 6.9641-3.4661 4.7096-0.07065 7.3626 9.4213 11.521 11.848 7.9261 4.2455 11.241 1.1735 12.002 0.46424 1.9018-1.8099 2.6714-3.3775 2.6786-5.5453 3e-3 -4.6965-1.0366-5.2208-1.9737-6.1562-1.8509-1.6804-3.1239-1.4517-5.1223-0.7519-2.8756 0.94387-2.334 2.3816-2.2087 3.2426 0.25219 1.3414 1.5292 1.5688 2.7726 1.8328 1.2897 0.27939 1.5389-1.312 1.1748-1.9267"/><path d="m162.29 84.377c-0.44277 3.9573-0.0268 8.0679-0.77539 11.513"/><path d="m165.11 83.649c0.10368 5.5976-0.92087 8.7272-0.7519 12.43"/></g><g transform="translate(19.97 -4.0387)" stroke="#000"><path d="m15.641 110.61c-3.0105-1.5994-6.1297-3.223-8.3738-4.6521"/><path d="m16.704 126.23c-0.14005 0.6637-6.1111 0.81355-7.2939 0.84735"/><path d="m20.625 139.45c-0.41208 1.2649-1.3417 2.077-2.459 2.7248"/><path d="m60.368 134.4c1.176 3.8044 2.5434 3.0938 4.1869 6.7124"/><path d="m60.933 125.36c2.9863 2.0216 5.1646 1.4934 6.4465 2.4258"/><path d="m62.096 108.62c2.0687-1.2547 3.1768-2.1664 3.4915-2.7946"/></g><g transform="translate(18.422 -1.5038)" stroke="#000"><path d="m27.743 142.91c1.0025 11.114 0.11038 21.51 0.37595 33.084 0.03197 0.32974-0.27795 0.1766-0.96337-0.044"/><path d="m16.171 145.06c4.9894-0.5459 11.464-3.9533 22.462-2.3363"/><path d="m39.328 150.78c0.56348 0.0314 0.69582 0.25774 0.65849 0.63943-1.842-0.11462-3.8554-0.0753-6.1629 0.22797 0.95693 7.906 0.3155 15.211 1.3523 23.634 1.6635-0.0451 3.8982-9e-3 5.7465 0.18718 0.2624 0.0278 0.16251-0.96975 0.06377-1.1712"/><path d="m34.723 162.11c1.5469-0.12663 1.9446-0.29511 2.3044-0.22734 0.14971-0.0194 0.10813 0.24188-0.02812 0.56511"/><path d="m45.167 176.09c-1.2328-12.384-0.74448-20.216-1.366-25.155 3.295 7.7523 4.6213 17.405 8.0603 23.347 2.4196-7.3025 2.9303-14.928 4.6854-22.895-0.38174 10.392 0.0382 17.585 0.33229 24.324 0.0098 0.36782 0.37295 0.12177 0.66459 0"/><path d="m60.737 175.83c1.0792 0.26046 1.6591 0.26587 1.6659-0.0543 0.41618-8.2968-0.59016-16.571-0.41531-24.766 3.4733-2.671 6.6468 2.9176 6.6189 4.373-0.06123 4.0428-4.2833 4.9023-5.8106 4.8741"/><path d="m71.482 150.86c0.65107-0.26928 0.96904-0.20674 0.96017 0.18137-0.65662 7.6214 0.52716 8.8588-0.24654 24.096 2.6445 0.0343 3.8186-0.0252 6.2566 0.25669 0.20568 0.0152 0.08015-0.39028-0.12788-0.90105"/><path d="m80.869 175.49 0.80261 0.35384c1.7327-8.7925 1.9944-19.22 4.5592-25.077 2.545 7.8399 3.4346 17.116 5.827 25.293"/><path d="m84.062 162.94c1.0706 0.54271 2.9874-0.10666 4.2888 0.17166"/><path d="m99.725 150.44c-0.31655 2.9265-0.77268 22.676-1.1934 25.797"/><path d="m92.912 150.47c2.6778-0.14413 9.5868-7e-3 13.631-0.0443 0.53039-5e-3 0.50197 0.58847 0.42101 1.0695"/><path d="m133.07 154.37c-0.63592-5.0412-4.8563-4.5119-6.2893-0.23808-2.0376 6.0234 7.6824 3.8508 6.8836 13.034-0.55213 5.8411-3.4492 9.588-7.4341 9.5993-4.3521 0.017-3.7784-3.0759-3.0174-7.0845 0.0917-0.45146-1.231-0.17279-2.3414-4e-3"/><path d="m117.17 150.06c0.52845 0.4997 0.33013 1.1897 0.15376 1.1133-3.2532-0.99633-4.82-0.45071-6.5598-0.0634-0.15855 8.2509-0.89928 22.279-0.41321 25.377 2.1369-0.30463 4.1791-0.096 5.7838-6e-3 0.30268 0.0246 0.38262-0.38203 0.16002-0.92304"/><path d="m110.93 162.3c0.7538 4e-3 1.5125-0.0307 2.256 0.0557 0.16775 0.0214 0.26589-0.13474 0.25178-0.53802"/></g></g></svg>
